<mxfile host="65bd71144e">
    <diagram id="6Zk6e03Z5pcMsP0oYu_N" name="Page-1">
        <mxGraphModel dx="566" dy="1691" grid="1" gridSize="10" guides="1" tooltips="1" connect="1" arrows="1" fold="1" page="1" pageScale="1" pageWidth="850" pageHeight="1100" math="0" shadow="0">
            <root>
                <mxCell id="0"/>
                <mxCell id="1" parent="0"/>
                <mxCell id="2" value="Подсистема сигнализации" style="rounded=0;whiteSpace=wrap;html=1;fontFamily=Helvetica;fillColor=#f5f5f5;verticalAlign=top;strokeColor=#666666;fontColor=#333333;" vertex="1" parent="1">
                    <mxGeometry x="620" y="-120" width="400" height="200" as="geometry"/>
                </mxCell>
                <mxCell id="3" value="Подсистема поворота" style="rounded=0;whiteSpace=wrap;html=1;fontFamily=Helvetica;fillColor=#f5f5f5;verticalAlign=top;strokeColor=#666666;fontColor=#333333;" vertex="1" parent="1">
                    <mxGeometry x="220" y="-120" width="380" height="280" as="geometry"/>
                </mxCell>
                <mxCell id="4" value="Подсистема торможения" style="rounded=0;whiteSpace=wrap;html=1;fontFamily=Helvetica;fillColor=#f5f5f5;verticalAlign=top;strokeColor=#666666;fontColor=#333333;" vertex="1" parent="1">
                    <mxGeometry x="620" y="200" width="530" height="290" as="geometry"/>
                </mxCell>
                <mxCell id="5" value="Основной МК&lt;br&gt;STM32F767ZI" style="rounded=1;whiteSpace=wrap;html=1;fontSize=14;" vertex="1" parent="1">
                    <mxGeometry x="630" y="110" width="120" height="60" as="geometry"/>
                </mxCell>
                <mxCell id="6" value="dsPIC33EP256" style="rounded=1;whiteSpace=wrap;html=1;fontSize=14;" vertex="1" parent="1">
                    <mxGeometry x="450" width="120" height="40" as="geometry"/>
                </mxCell>
                <mxCell id="7" value="Привод поворота руля" style="rounded=1;whiteSpace=wrap;html=1;fontSize=14;fillColor=#f8cecc;strokeColor=#b85450;" vertex="1" parent="1">
                    <mxGeometry x="260" y="80" width="120" height="40" as="geometry"/>
                </mxCell>
                <mxCell id="8" value="" style="endArrow=classic;startArrow=none;html=1;fontSize=14;startFill=0;" edge="1" parent="1" source="11" target="7">
                    <mxGeometry width="50" height="50" relative="1" as="geometry">
                        <mxPoint x="697.1428571428571" y="10" as="sourcePoint"/>
                        <mxPoint x="782.8571428571429" y="-90" as="targetPoint"/>
                    </mxGeometry>
                </mxCell>
                <mxCell id="9" value="UART" style="endArrow=classic;startArrow=none;html=1;fontSize=14;startFill=0;" edge="1" parent="1" source="39" target="6">
                    <mxGeometry width="50" height="50" relative="1" as="geometry">
                        <mxPoint x="670" y="430" as="sourcePoint"/>
                        <mxPoint x="320" y="350" as="targetPoint"/>
                    </mxGeometry>
                </mxCell>
                <mxCell id="10" value="GPIO" style="endArrow=none;startArrow=classic;html=1;fontSize=14;endFill=0;" edge="1" parent="1" source="44" target="42">
                    <mxGeometry width="50" height="50" relative="1" as="geometry">
                        <mxPoint x="306.66666666666674" y="319.9999999999999" as="sourcePoint"/>
                        <mxPoint x="413.3333333333335" y="240" as="targetPoint"/>
                        <Array as="points">
                            <mxPoint x="665" y="40"/>
                        </Array>
                    </mxGeometry>
                </mxCell>
                <mxCell id="11" value="Драйвер для ДПТ" style="rounded=1;whiteSpace=wrap;html=1;fontSize=14;fillColor=#dae8fc;strokeColor=#6c8ebf;" vertex="1" parent="1">
                    <mxGeometry x="260" width="120" height="40" as="geometry"/>
                </mxCell>
                <mxCell id="12" value="ШИМ" style="endArrow=classic;startArrow=none;html=1;fontSize=14;startFill=0;" edge="1" parent="1" source="6" target="11">
                    <mxGeometry width="50" height="50" relative="1" as="geometry">
                        <mxPoint x="350" y="90" as="sourcePoint"/>
                        <mxPoint x="290.0000000000002" y="50" as="targetPoint"/>
                    </mxGeometry>
                </mxCell>
                <mxCell id="13" value="&amp;nbsp; Потенциометр &lt;br&gt;руля" style="rounded=1;whiteSpace=wrap;html=1;fontSize=14;fillColor=#e1d5e7;strokeColor=#9673a6;" vertex="1" parent="1">
                    <mxGeometry x="450" y="80" width="120" height="40" as="geometry"/>
                </mxCell>
                <mxCell id="14" value="АЦП" style="endArrow=none;startArrow=classic;html=1;fontSize=14;endFill=0;" edge="1" parent="1" source="6" target="13">
                    <mxGeometry width="50" height="50" relative="1" as="geometry">
                        <mxPoint x="460" y="110" as="sourcePoint"/>
                        <mxPoint x="420" y="110" as="targetPoint"/>
                    </mxGeometry>
                </mxCell>
                <mxCell id="15" value="60 В" style="rounded=1;whiteSpace=wrap;html=1;fontSize=14;fillColor=#fff2cc;strokeColor=#d6b656;fontStyle=0" vertex="1" parent="1">
                    <mxGeometry x="350" y="30" width="40" height="20" as="geometry"/>
                </mxCell>
                <mxCell id="16" value="5 В" style="rounded=1;whiteSpace=wrap;html=1;fontSize=14;fillColor=#fff2cc;strokeColor=#d6b656;fontStyle=0" vertex="1" parent="1">
                    <mxGeometry x="710" y="160" width="40" height="20" as="geometry"/>
                </mxCell>
                <mxCell id="17" value="5 В" style="rounded=1;whiteSpace=wrap;html=1;fontSize=14;fillColor=#fff2cc;strokeColor=#d6b656;fontStyle=0" vertex="1" parent="1">
                    <mxGeometry x="540" y="110" width="40" height="20" as="geometry"/>
                </mxCell>
                <mxCell id="18" value="МК" style="rounded=1;whiteSpace=wrap;html=1;fontSize=14;dashed=1;" vertex="1" parent="1">
                    <mxGeometry x="860" y="230" width="50" height="30" as="geometry"/>
                </mxCell>
                <mxCell id="19" value="Привод тормоза" style="rounded=1;whiteSpace=wrap;html=1;fontSize=14;fillColor=#f8cecc;strokeColor=#b85450;" vertex="1" parent="1">
                    <mxGeometry x="825" y="400" width="120" height="40" as="geometry"/>
                </mxCell>
                <mxCell id="20" value="Драйвер для ДПТ" style="rounded=1;whiteSpace=wrap;html=1;fontSize=14;fillColor=#dae8fc;strokeColor=#6c8ebf;" vertex="1" parent="1">
                    <mxGeometry x="825" y="330" width="120" height="40" as="geometry"/>
                </mxCell>
                <mxCell id="21" value="ШИМ" style="endArrow=none;startArrow=classic;html=1;fontSize=14;endFill=0;" edge="1" parent="1" source="20" target="18">
                    <mxGeometry width="50" height="50" relative="1" as="geometry">
                        <mxPoint x="782.0000000000002" y="379.9999999999999" as="sourcePoint"/>
                        <mxPoint x="680" y="313.0769230769231" as="targetPoint"/>
                        <Array as="points"/>
                    </mxGeometry>
                </mxCell>
                <mxCell id="22" value="" style="endArrow=none;startArrow=classic;html=1;fontSize=14;startFill=1;endFill=0;" edge="1" parent="1" source="19" target="20">
                    <mxGeometry width="50" height="50" relative="1" as="geometry">
                        <mxPoint x="534" y="379.9999999999999" as="sourcePoint"/>
                        <mxPoint x="606" y="319.9999999999999" as="targetPoint"/>
                    </mxGeometry>
                </mxCell>
                <mxCell id="23" value="GPIO" style="endArrow=classic;startArrow=none;html=1;fontSize=14;startFill=0;" edge="1" parent="1" source="25" target="18">
                    <mxGeometry width="50" height="50" relative="1" as="geometry">
                        <mxPoint x="1020" y="370" as="sourcePoint"/>
                        <mxPoint x="680" y="305" as="targetPoint"/>
                        <Array as="points">
                            <mxPoint x="720" y="245"/>
                        </Array>
                    </mxGeometry>
                </mxCell>
                <mxCell id="24" value="Концевой датчик отжатия" style="rounded=1;whiteSpace=wrap;html=1;fontSize=14;fillColor=#e1d5e7;strokeColor=#9673a6;" vertex="1" parent="1">
                    <mxGeometry x="990" y="400" width="120" height="40" as="geometry"/>
                </mxCell>
                <mxCell id="25" value="Концевой датчик прижима" style="rounded=1;whiteSpace=wrap;html=1;fontSize=14;fillColor=#e1d5e7;strokeColor=#9673a6;" vertex="1" parent="1">
                    <mxGeometry x="660" y="400" width="120" height="40" as="geometry"/>
                </mxCell>
                <mxCell id="26" value="GPIO" style="endArrow=classic;startArrow=none;html=1;fontSize=14;startFill=0;" edge="1" parent="1" source="24" target="18">
                    <mxGeometry width="50" height="50" relative="1" as="geometry">
                        <mxPoint x="1096.6666666666665" y="400" as="sourcePoint"/>
                        <mxPoint x="680" y="289.88" as="targetPoint"/>
                        <Array as="points">
                            <mxPoint x="1049" y="245"/>
                        </Array>
                    </mxGeometry>
                </mxCell>
                <mxCell id="27" value="60 В" style="rounded=1;whiteSpace=wrap;html=1;fontSize=14;fillColor=#fff2cc;strokeColor=#d6b656;fontStyle=0" vertex="1" parent="1">
                    <mxGeometry x="910" y="360" width="40" height="20" as="geometry"/>
                </mxCell>
                <mxCell id="28" value="" style="shape=link;html=1;fontFamily=Helvetica;" edge="1" parent="1" source="19" target="24">
                    <mxGeometry width="100" relative="1" as="geometry">
                        <mxPoint x="790" y="430" as="sourcePoint"/>
                        <mxPoint x="835" y="430" as="targetPoint"/>
                    </mxGeometry>
                </mxCell>
                <mxCell id="29" value="Подсистема скорости" style="rounded=0;whiteSpace=wrap;html=1;fontFamily=Helvetica;fillColor=#f5f5f5;verticalAlign=top;strokeColor=#666666;fontColor=#333333;" vertex="1" parent="1">
                    <mxGeometry x="220" y="200" width="360" height="290" as="geometry"/>
                </mxCell>
                <mxCell id="30" value="Привод скорости" style="rounded=1;whiteSpace=wrap;html=1;fontSize=14;fillColor=#f8cecc;strokeColor=#b85450;" vertex="1" parent="1">
                    <mxGeometry x="400" y="410" width="120" height="40" as="geometry"/>
                </mxCell>
                <mxCell id="31" value="Одометрия&lt;br&gt;(энкодер)" style="rounded=1;whiteSpace=wrap;html=1;fontSize=14;fillColor=#e1d5e7;strokeColor=#9673a6;" vertex="1" parent="1">
                    <mxGeometry x="240" y="410" width="120" height="40" as="geometry"/>
                </mxCell>
                <mxCell id="32" value="Прерывания" style="endArrow=none;startArrow=classic;html=1;fontSize=14;endFill=0;" edge="1" parent="1" source="38" target="31">
                    <mxGeometry x="0.1316" y="-4" width="50" height="50" relative="1" as="geometry">
                        <mxPoint x="400" y="250.0000000000001" as="sourcePoint"/>
                        <mxPoint x="610" y="190" as="targetPoint"/>
                        <mxPoint as="offset"/>
                        <Array as="points">
                            <mxPoint x="300" y="260"/>
                        </Array>
                    </mxGeometry>
                </mxCell>
                <mxCell id="33" value="Инвертор" style="rounded=1;whiteSpace=wrap;html=1;fontSize=14;fillColor=#dae8fc;strokeColor=#6c8ebf;" vertex="1" parent="1">
                    <mxGeometry x="400" y="340" width="120" height="40" as="geometry"/>
                </mxCell>
                <mxCell id="34" value="ЦАП" style="endArrow=none;startArrow=classic;html=1;fontSize=14;endFill=0;" edge="1" parent="1" source="33" target="38">
                    <mxGeometry width="50" height="50" relative="1" as="geometry">
                        <mxPoint x="610" y="259.9999999999999" as="sourcePoint"/>
                        <mxPoint x="460" y="280.0000000000001" as="targetPoint"/>
                    </mxGeometry>
                </mxCell>
                <mxCell id="35" value="" style="endArrow=none;startArrow=classic;html=1;fontSize=14;endFill=0;" edge="1" parent="1" source="30" target="33">
                    <mxGeometry width="50" height="50" relative="1" as="geometry">
                        <mxPoint x="555.5555555555554" y="329.9999999999999" as="sourcePoint"/>
                        <mxPoint x="494.44444444444457" y="279.9999999999999" as="targetPoint"/>
                    </mxGeometry>
                </mxCell>
                <mxCell id="36" value="60 В" style="rounded=1;whiteSpace=wrap;html=1;fontSize=14;fillColor=#fff2cc;strokeColor=#d6b656;fontStyle=0" vertex="1" parent="1">
                    <mxGeometry x="490" y="370" width="40" height="20" as="geometry"/>
                </mxCell>
                <mxCell id="37" value="5 В" style="rounded=1;whiteSpace=wrap;html=1;fontSize=14;fillColor=#fff2cc;strokeColor=#d6b656;fontStyle=0" vertex="1" parent="1">
                    <mxGeometry x="334" y="440" width="40" height="20" as="geometry"/>
                </mxCell>
                <mxCell id="38" value="МК" style="rounded=1;whiteSpace=wrap;html=1;fontSize=14;dashed=1;" vertex="1" parent="1">
                    <mxGeometry x="435" y="240" width="50" height="30" as="geometry"/>
                </mxCell>
                <mxCell id="39" value="МК" style="rounded=1;whiteSpace=wrap;html=1;fontSize=14;dashed=1;" vertex="1" parent="1">
                    <mxGeometry x="485" y="-80" width="50" height="30" as="geometry"/>
                </mxCell>
                <mxCell id="40" value="" style="shape=link;html=1;fontFamily=Helvetica;" edge="1" parent="1" source="31" target="30">
                    <mxGeometry width="100" relative="1" as="geometry">
                        <mxPoint x="970" y="440" as="sourcePoint"/>
                        <mxPoint x="1015" y="440" as="targetPoint"/>
                    </mxGeometry>
                </mxCell>
                <mxCell id="41" value="" style="shape=link;html=1;fontFamily=Helvetica;" edge="1" parent="1" source="7" target="13">
                    <mxGeometry width="100" relative="1" as="geometry">
                        <mxPoint x="990" y="450" as="sourcePoint"/>
                        <mxPoint x="1035" y="450" as="targetPoint"/>
                    </mxGeometry>
                </mxCell>
                <mxCell id="42" value="МК" style="rounded=1;whiteSpace=wrap;html=1;fontSize=14;dashed=1;" vertex="1" parent="1">
                    <mxGeometry x="640" y="-100" width="50" height="30" as="geometry"/>
                </mxCell>
                <mxCell id="43" value="Звуковая сигнализация" style="rounded=1;whiteSpace=wrap;html=1;fontSize=14;fillColor=#f8cecc;strokeColor=#b85450;" vertex="1" parent="1">
                    <mxGeometry x="710" y="-60" width="120" height="40" as="geometry"/>
                </mxCell>
                <mxCell id="44" value="Драйвер" style="rounded=1;whiteSpace=wrap;html=1;fontSize=14;fillColor=#dae8fc;strokeColor=#6c8ebf;fontStyle=0" vertex="1" parent="1">
                    <mxGeometry x="710" y="20" width="120" height="40" as="geometry"/>
                </mxCell>
                <mxCell id="45" value="" style="endArrow=none;startArrow=classic;html=1;fontSize=14;endFill=0;" edge="1" parent="1" source="43" target="44">
                    <mxGeometry width="50" height="50" relative="1" as="geometry">
                        <mxPoint x="720" y="49.999999999999886" as="sourcePoint"/>
                        <mxPoint x="770" y="42" as="targetPoint"/>
                    </mxGeometry>
                </mxCell>
                <mxCell id="46" value="Световая сигнализация" style="rounded=1;whiteSpace=wrap;html=1;fontSize=14;fillColor=#f8cecc;strokeColor=#b85450;" vertex="1" parent="1">
                    <mxGeometry x="870" y="20" width="120" height="40" as="geometry"/>
                </mxCell>
                <mxCell id="47" value="" style="endArrow=none;startArrow=classic;html=1;fontSize=14;endFill=0;" edge="1" parent="1" source="46" target="44">
                    <mxGeometry width="50" height="50" relative="1" as="geometry">
                        <mxPoint x="780" y="-10" as="sourcePoint"/>
                        <mxPoint x="780" y="30" as="targetPoint"/>
                    </mxGeometry>
                </mxCell>
                <mxCell id="48" value="12 В" style="rounded=1;whiteSpace=wrap;html=1;fontSize=14;fillColor=#fff2cc;strokeColor=#d6b656;fontStyle=0;" vertex="1" parent="1">
                    <mxGeometry x="800" y="50" width="40" height="20" as="geometry"/>
                </mxCell>
                <mxCell id="49" value="МК" style="rounded=1;whiteSpace=wrap;html=1;fontSize=14;dashed=1;" vertex="1" parent="1">
                    <mxGeometry x="720" y="90" width="50" height="30" as="geometry"/>
                </mxCell>
                <mxCell id="50" value="" style="shape=link;html=1;fontFamily=Helvetica;" edge="1" parent="1" source="25" target="19">
                    <mxGeometry width="100" relative="1" as="geometry">
                        <mxPoint x="955" y="430" as="sourcePoint"/>
                        <mxPoint x="1000" y="430" as="targetPoint"/>
                    </mxGeometry>
                </mxCell>
            </root>
        </mxGraphModel>
    </diagram>
</mxfile>